<svg xmlns="http://www.w3.org/2000/svg" viewBox="0 0 64.01 64.01"><g id="Layer_2" data-name="Layer 2"><g id="Layer_1-2" data-name="Layer 1"><g id="Binance_BNB" data-name="Binance BNB"><path d="m63.05 39.75a32 32 0 1 1 -23.31-38.75 32 32 0 0 1 23.31 38.75z" fill="#f0b90b"></path><g opacity=".24"><path d="m32 64a32.21 32.21 0 0 1 -7.74-1 32 32 0 0 1 -23.26-38.73 32 32 0 0 1 58.47-8.74 32 32 0 0 1 -27.47 48.47zm0-58a26 26 0 0 0 -25.21 19.72 26 26 0 1 0 50.44 12.57 26 26 0 0 0 -18.94-31.51 26.31 26.31 0 0 0 -6.29-.78z" fill="#fff"></path></g><g opacity=".3"><path d="m62.09 21.13-61.68 16.01a32 32 0 0 1 61.68-16z" fill="#fff"></path></g><path d="m57.22 38.3a26 26 0 1 1 -18.93-31.52 26 26 0 0 1 18.93 31.52z" fill="#f0b90b"></path><path d="m25.52 29.13 7-7 7 7 4.07-4.06-11.09-11.07-11 11zm-11.02 2.87 4.07-4.06 4.06 4.06-4.06 4.07zm11 2.9 7 7 7-7 4.07 4.06-11.07 11.04-11.05-11zm16.87-2.9 4.06-4.06 4.07 4.06-4.07 4.07zm-5.73 0-4.14 4.13-4.12-4.13.72-.72.36-.35 3-3.05z" fill="#fff" fill-rule="evenodd"></path></g></g></g></svg>